# xmcd
#
# Track frame offsets: 
#        150
#        14192
#        31812
#        52008
#        67115
#        84327
#        102975
#        118287
#        136826
#        153528
#        174553
#        195742
#        210537
#
# Disc length: 2957 seconds
#
# Revision: 0
# Processed by: cddbd v1.5.2PL0 Copyright (c) Steve Scherf et al.
# Submitted via: ExactAudioCopy v0.95b4
#
DISCID=bb0b8b0d
DTITLE=Blues Company - Kispirics
DYEAR=2001
DGENRE=Blues
TTITLE0=Kocsma Rock
TTITLE1=Megfogom a feneked
TTITLE2=Szabadnak születtél
TTITLE3=Válassz egy csillagot
TTITLE4=Szenvedély
TTITLE5=Útember
TTITLE6=Lipótmezõ
TTITLE7=Sördal
TTITLE8=Országúti sztár
TTITLE9=Kispirics
TTITLE10=Ha nem isztok, csak esztek
TTITLE11=Ballada a didirõl
TTITLE12=Kapaszkodj babám
EXTD=
EXTT0=
EXTT1=
EXTT2=
EXTT3=
EXTT4=
EXTT5=
EXTT6=
EXTT7=
EXTT8=
EXTT9=
EXTT10=
EXTT11=
EXTT12=
PLAYORDER=
